<svg version="1" xmlns="http://www.w3.org/2000/svg" width="373.333" height="373.333" viewBox="0 0 280.000000 280.000000"><path d="M136.9 7c-.1 2-.3 3-3.8 14.9-2.9 10-3.3 10.7-8.9 16C111.3 50.3 105.4 60.3 101 77c-1.6 6-2 27.8-.6 28.3.6.2 18 .3 38.6.3l37.5-.1-.2-12.2c-.3-23.4-7.8-40.3-25-56.3-5.9-5.5-5.9-5.5-9.2-17.5-3.1-11.3-5-15.9-5.2-12.5zm7.3 39.7c11.8 11.1 18.7 24.5 20.2 39.5l.3 3.8h-53.6l.5-4.8c1-8.5 5.4-20 10.8-27.7 2.8-4 14.4-15.5 15.7-15.5.5 0 3.3 2.1 6.1 4.7z"/><path d="M160.2 41.1c2.9 3.5 6.3 8 7.5 10 1.6 2.6 3.4 3.9 6.4 4.8 2.3.7 7.9 3.2 12.5 5.6 25.6 13.4 44.3 36 52.2 63 3 10 3.3 11.7 3.9 24.2.5 10.1 0 16-2.4 29.3-.8 4.6-6.9 19.5-10.7 26.4-2.1 3.7-6.7 10.3-10.1 14.6l-6.3 7.8 7.7 3 7.6 3 2.8-3.1c12.5-14.4 23.7-39.8 26.3-59.2 6.8-53.1-21-103.8-68.8-125.4-7.4-3.4-21.6-8-26.5-8.6-2-.2-4.4-.7-5.5-1.1-1.4-.4-.3 1.4 3.4 5.7zM110 38.1C89 43.6 71.2 53.7 55.9 69c-22.8 22.8-35 51.4-35.3 82.5-.1 17.6 1.8 28.9 7.4 44.3 4 10.8 11.8 24.2 19.4 33.3l3 3.6 7-2.9c3.8-1.5 7.2-3 7.4-3.3.2-.2-2.1-3.4-5.1-7.2-16.6-20.8-23.9-42-23.2-68.3.1-7.4.5-14.5.8-15.8 6-24.5 14.6-40.3 29.9-55.3 9-8.9 17.7-14.9 30-20.7 7.5-3.6 9.1-4.8 12.2-9.4 1.9-2.9 5.4-7.2 7.6-9.6 4.8-4.9 4.3-5.1-7-2.1zM103.1 128c0 11 .3 20 .7 20.1.4 0 3.1.1 6 .2l5.2.2V108h-11.9v20zM161 127.8c0 15.1.3 20.1 1.3 20.4.6.3 3.2.2 5.7-.1l4.5-.6v-39l-5.7-.3-5.8-.3v19.9zM132.8 112c-6.4 2-10.6 7-11.7 14.1-1.6 10 5.9 18.9 16.1 19 5.6.1 9-1.3 12.8-5.2 9.7-10.2 3.5-26.8-10.6-28.4-2.1-.2-5.1 0-6.6.5zM93 159v8h44.5c34.4-.1 44.5-.3 44.6-1.3.1-1.4.1-11.7 0-13.4-.1-.9-10.4-1.2-44.6-1.2H93v7.9zM132.1 170.4c-1.8 1.9-2.3 3.6-2.3 8.2-.1 3.3-.7 7.1-1.5 8.6-1.3 2.6-1.2 2.8.9 2.9 1.3.1 2.7.1 3.2 0s1.9.8 3.1 1.9c2.3 2.2 2.3 2.2 4.3.2 1.1-1.1 3-1.9 4.3-1.9 4.8-.1 4.9-.1 3.3-3.1-.7-1.5-1.4-5.2-1.4-8.3 0-7.4-2.5-10.9-7.9-10.9-2.7 0-4.4.7-6 2.4zM100.2 170.4c-.4.6-.7 7.5-.7 15.3 0 13.6.1 14.3 2 14.4 5 .2 8.6.1 9-.3.4-.4.9-26.1.6-29.3-.1-1.4-10-1.4-10.9-.1zM164.9 169.5c-.1 0-.2 6.9-.3 15.2-.1 13 .1 15.3 1.4 15.4 2.5.2 8.4-.1 9.5-.5.8-.3 1.1-17.4.6-28.6-.1-1.2-1.4-1.5-5.6-1.5-3-.1-5.6-.1-5.6 0zM119.4 208.5c-10.9 4.6-21.2 8.9-22.9 9.5-1.6.7-4.8 2.1-7 3-2.2 1-10.7 4.6-19 8-8.2 3.5-15.4 6.6-15.8 7-2 1.8 18.5 17.5 31 23.9 6.4 3.2 17.9 7.7 21.7 8.6 1.1.2 3.9.9 6.1 1.5 9.7 2.4 30.5 3.3 42.6 1.7 15.6-2.1 37-10.4 50.3-19.5 3.2-2.2 9-6.8 12.8-10.3l7-6.2-10.8-4.3c-6-2.4-11.8-4.8-12.9-5.3-1.1-.6-5.6-2.4-10-4.2-4.4-1.7-10-4-12.5-5.1-2.5-1.2-5.6-2.4-7-2.8-1.4-.5-9.5-3.7-18.1-7.3l-15.6-6.5-19.9 8.3zm48.4 20.3c14.4 5.9 26.3 11.1 26.4 11.7.2 1.5-15 9-23.9 11.9-11 3.4-13.2 3.7-28.3 4.2-19.8.5-34.4-2.9-52.2-12.3-6.7-3.5-6.9-3.8-4.7-4.7 14.5-6.6 53.8-22.1 55-21.8.8.2 13.3 5.1 27.7 11zM96.9 206c-.2 3.2.2 6.4.7 6.9.4.5 21.3-7.7 22.7-8.9.4-.3-4.7-.6-11.3-.6l-12 .1-.1 2.5zM157.6 203.8c.5.5 4.3 2.1 8.4 3.7 4.1 1.5 9.4 3.6 11.7 4.6 4.2 1.7 4.2 1.7 4.5-.4.2-1.2.1-3.7-.1-5.5l-.3-3.2h-12.6c-6.9 0-12.2.4-11.6.8z"/></svg>